<svg width="194" height="450" viewBox="0 0 194 450" fill="none" xmlns="http://www.w3.org/2000/svg">
<mask id="mask0_377_6947" style="mask-type:luminance" maskUnits="userSpaceOnUse" x="-31" y="0" width="225" height="450">
<path d="M194 0H-31V450H194V0Z" fill="white"/>
</mask>
<g mask="url(#mask0_377_6947)">
<path d="M144 375H69V450H144V375Z" fill="#EB6D45"/>
<path d="M69 412.5C69 391.789 52.2107 375 31.5 375C10.7893 375 -6 391.789 -6 412.5C-6 433.211 10.7893 450 31.5 450C52.2107 450 69 433.211 69 412.5Z" fill="#71A34F"/>
<path d="M144 337.5C144 316.789 127.211 300 106.5 300C85.7893 300 69 316.789 69 337.5C69 358.211 85.7893 375 106.5 375C127.211 375 144 358.211 144 337.5Z" fill="#71A34F"/>
<path d="M69 225H-6V300H69V225Z" fill="#EB6D45"/>
<path d="M69 187.5C69 166.789 52.2107 150 31.5 150C10.7893 150 -6 166.789 -6 187.5C-6 208.211 10.7893 225 31.5 225C52.2107 225 69 208.211 69 187.5Z" fill="#917ADA"/>
<path d="M69 0H-6V75H69V0Z" fill="#A52218"/>
</g>
</svg>
