<svg width="1344" height="212" viewBox="0 0 1344 212" fill="none" xmlns="http://www.w3.org/2000/svg">
<path d="M1178.86 66.5544V96.8064H1243.41C1257.21 96.8064 1264.12 91.7644 1264.12 81.6804C1264.12 71.5964 1257.21 66.5544 1243.41 66.5544H1178.86ZM1178.86 163.361V211.764H1099.69V0H1240.67C1274.16 0 1299.74 7.26048 1317.4 21.7814C1334.66 35.6974 1343.29 55.6637 1343.29 81.6804C1343.29 114.554 1329.68 137.747 1302.48 151.26L1343.29 211.764H1261.07L1228.49 163.361H1178.86Z" fill="url(#paint0_linear_84_240)" fill-opacity="0.2"/>
<path d="M989.964 211.764V0H1069.13V211.764H989.964Z" fill="url(#paint1_linear_84_240)" fill-opacity="0.2"/>
<path d="M767.54 0H883.248L974.597 211.764H892.383L876.854 175.462H773.935L758.405 211.764H676.192L767.54 0ZM825.394 56.5712L797.685 121.008H853.103L825.394 56.5712Z" fill="url(#paint2_linear_84_240)" fill-opacity="0.2"/>
<path d="M466.033 0H703.539V66.5544H624.37V211.764H545.202V66.5544H466.033V0Z" fill="url(#paint3_linear_84_240)" fill-opacity="0.2"/>
<path d="M313.772 0H392.941V145.21H514.739V211.764H313.772V0Z" fill="url(#paint4_linear_84_240)" fill-opacity="0.2"/>
<path d="M91.3486 0H207.057L298.405 211.764H216.192L200.662 175.462H97.743L82.2137 211.764H0L91.3486 0ZM149.203 56.5712L121.494 121.008H176.912L149.203 56.5712Z" fill="url(#paint5_linear_84_240)" fill-opacity="0.2"/>
<defs>
<linearGradient id="paint0_linear_84_240" x1="1221.49" y1="211.764" x2="1221.49" y2="0" gradientUnits="userSpaceOnUse">
<stop offset="0.250074" stop-color="#053370"/>
<stop offset="1" stop-color="#BDBDBD"/>
</linearGradient>
<linearGradient id="paint1_linear_84_240" x1="1029.55" y1="211.764" x2="1029.55" y2="0" gradientUnits="userSpaceOnUse">
<stop offset="0.250074" stop-color="#053370"/>
<stop offset="1" stop-color="#BDBDBD"/>
</linearGradient>
<linearGradient id="paint2_linear_84_240" x1="825.394" y1="211.764" x2="825.394" y2="0" gradientUnits="userSpaceOnUse">
<stop offset="0.250074" stop-color="#053370"/>
<stop offset="1" stop-color="#BDBDBD"/>
</linearGradient>
<linearGradient id="paint3_linear_84_240" x1="584.786" y1="211.764" x2="584.786" y2="0" gradientUnits="userSpaceOnUse">
<stop offset="0.250074" stop-color="#053370"/>
<stop offset="1" stop-color="#BDBDBD"/>
</linearGradient>
<linearGradient id="paint4_linear_84_240" x1="414.255" y1="211.764" x2="414.255" y2="0" gradientUnits="userSpaceOnUse">
<stop offset="0.250074" stop-color="#053370"/>
<stop offset="1" stop-color="#BDBDBD"/>
</linearGradient>
<linearGradient id="paint5_linear_84_240" x1="149.203" y1="211.764" x2="149.203" y2="0" gradientUnits="userSpaceOnUse">
<stop offset="0.250074" stop-color="#053370"/>
<stop offset="1" stop-color="#BDBDBD"/>
</linearGradient>
</defs>
</svg>
