<svg width="1493" height="679" viewBox="0 0 1493 679" fill="none" xmlns="http://www.w3.org/2000/svg">
<g opacity="0.7" style="mix-blend-mode:soft-light">
<path d="M34.3041 0.402748H0.402746V34.3041M34.3041 0.402748V34.3041M34.3041 0.402748H68.2054M34.3041 34.3041H0.402746M34.3041 34.3041V68.2054M34.3041 34.3041H68.2054M0.402746 34.3041V68.2054M34.3041 68.2054H0.402746M34.3041 68.2054V102.107M34.3041 68.2054H68.2054M0.402746 68.2054V102.107M34.3041 102.107H0.402746M34.3041 102.107V136.008M34.3041 102.107H68.2054M0.402746 102.107V136.008M34.3041 136.008H0.402746M34.3041 136.008V169.909M34.3041 136.008H68.2054M0.402746 136.008V169.909M34.3041 169.909H0.402746M34.3041 169.909V203.811M34.3041 169.909H68.2054M0.402746 169.909V203.811M34.3041 203.811H0.402746M34.3041 203.811V237.712M34.3041 203.811H68.2054M0.402746 203.811V237.712M34.3041 237.712H0.402746M34.3041 237.712V271.614M34.3041 237.712H68.2054M0.402746 237.712V271.614M34.3041 271.614H0.402746M34.3041 271.614V305.515M34.3041 271.614H68.2054M0.402746 271.614V305.515M34.3041 305.515H0.402746M34.3041 305.515V339.416M34.3041 305.515H68.2054M0.402746 305.515V339.416M34.3041 339.416H0.402746M34.3041 339.416V373.318M34.3041 339.416H68.2054M0.402746 339.416V373.318M34.3041 373.318H0.402746M34.3041 373.318V407.219M34.3041 373.318H68.2054M0.402746 373.318V407.219M34.3041 407.219H0.402746M34.3041 407.219V441.12M34.3041 407.219H68.2054M0.402746 407.219V441.12M34.3041 441.12H0.402746M34.3041 441.12V475.022M34.3041 441.12H68.2054M0.402746 441.12V475.022M34.3041 475.022H0.402746M34.3041 475.022V508.923M34.3041 475.022H68.2054M0.402746 475.022V508.923M34.3041 508.923H0.402746M34.3041 508.923V542.824M34.3041 508.923H68.2054M0.402746 508.923V542.824M34.3041 542.824H0.402746M34.3041 542.824V576.726M34.3041 542.824H68.2054M0.402746 542.824V576.726M34.3041 576.726H0.402746M34.3041 576.726V610.627M34.3041 576.726H68.2054M0.402746 576.726V610.627M34.3041 610.627H0.402746M34.3041 610.627V644.528M34.3041 610.627H68.2054M0.402746 610.627V644.528M34.3041 644.528H0.402746M34.3041 644.528V678.43M34.3041 644.528H68.2054M0.402746 644.528V678.43H34.3041M34.3041 678.43H68.2054M68.2054 0.402748V34.3041M68.2054 0.402748H102.107M68.2054 34.3041V68.2054M68.2054 34.3041H102.107M68.2054 68.2054V102.107M68.2054 68.2054H102.107M68.2054 102.107V136.008M68.2054 102.107H102.107M68.2054 136.008V169.909M68.2054 136.008H102.107M68.2054 169.909V203.811M68.2054 169.909H102.107M68.2054 203.811V237.712M68.2054 203.811H102.107M68.2054 237.712V271.614M68.2054 237.712H102.107M68.2054 271.614V305.515M68.2054 271.614H102.107M68.2054 305.515V339.416M68.2054 305.515H102.107M68.2054 339.416V373.318M68.2054 339.416H102.107M68.2054 373.318V407.219M68.2054 373.318H102.107M68.2054 407.219V441.12M68.2054 407.219H102.107M68.2054 441.12V475.022M68.2054 441.12H102.107M68.2054 475.022V508.923M68.2054 475.022H102.107M68.2054 508.923V542.824M68.2054 508.923H102.107M68.2054 542.824V576.726M68.2054 542.824H102.107M68.2054 576.726V610.627M68.2054 576.726H102.107M68.2054 610.627V644.528M68.2054 610.627H102.107M68.2054 644.528V678.43M68.2054 644.528H102.107M68.2054 678.43H102.107M102.107 0.402748V34.3041M102.107 0.402748H136.008M102.107 34.3041V68.2054M102.107 34.3041H136.008M102.107 68.2054V102.107M102.107 68.2054H136.008M102.107 102.107V136.008M102.107 102.107H136.008M102.107 136.008V169.909M102.107 136.008H136.008M102.107 169.909V203.811M102.107 169.909H136.008M102.107 203.811V237.712M102.107 203.811H136.008M102.107 237.712V271.614M102.107 237.712H136.008M102.107 271.614V305.515M102.107 271.614H136.008M102.107 305.515V339.416M102.107 305.515H136.008M102.107 339.416V373.318M102.107 339.416H136.008M102.107 373.318V407.219M102.107 373.318H136.008M102.107 407.219V441.12M102.107 407.219H136.008M102.107 441.12V475.022M102.107 441.12H136.008M102.107 475.022V508.923M102.107 475.022H136.008M102.107 508.923V542.824M102.107 508.923H136.008M102.107 542.824V576.726M102.107 542.824H136.008M102.107 576.726V610.627M102.107 576.726H136.008M102.107 610.627V644.528M102.107 610.627H136.008M102.107 644.528V678.43M102.107 644.528H136.008M102.107 678.43H136.008M136.008 0.402748V34.3041M136.008 0.402748H169.909M136.008 34.3041V68.2054M136.008 34.3041H169.909M136.008 68.2054V102.107M136.008 68.2054H169.909M136.008 102.107V136.008M136.008 102.107H169.909M136.008 136.008V169.909M136.008 136.008H169.909M136.008 169.909V203.811M136.008 169.909H169.909M136.008 203.811V237.712M136.008 203.811H169.909M136.008 237.712V271.614M136.008 237.712H169.909M136.008 271.614V305.515M136.008 271.614H169.909M136.008 305.515V339.416M136.008 305.515H169.909M136.008 339.416V373.318M136.008 339.416H169.909M136.008 373.318V407.219M136.008 373.318H169.909M136.008 407.219V441.12M136.008 407.219H169.909M136.008 441.12V475.022M136.008 441.12H169.909M136.008 475.022V508.923M136.008 475.022H169.909M136.008 508.923V542.824M136.008 508.923H169.909M136.008 542.824V576.726M136.008 542.824H169.909M136.008 576.726V610.627M136.008 576.726H169.909M136.008 610.627V644.528M136.008 610.627H169.909M136.008 644.528V678.43M136.008 644.528H169.909M136.008 678.43H169.909M169.909 0.402748V34.3041M169.909 0.402748H203.811M169.909 34.3041V68.2054M169.909 34.3041H203.811M169.909 68.2054V102.107M169.909 68.2054H203.811M169.909 102.107V136.008M169.909 102.107H203.811M169.909 136.008V169.909M169.909 136.008H203.811M169.909 169.909V203.811M169.909 169.909H203.811M169.909 203.811V237.712M169.909 203.811H203.811M169.909 237.712V271.614M169.909 237.712H203.811M169.909 271.614V305.515M169.909 271.614H203.811M169.909 305.515V339.416M169.909 305.515H203.811M169.909 339.416V373.318M169.909 339.416H203.811M169.909 373.318V407.219M169.909 373.318H203.811M169.909 407.219V441.12M169.909 407.219H203.811M169.909 441.12V475.022M169.909 441.12H203.811M169.909 475.022V508.923M169.909 475.022H203.811M169.909 508.923V542.824M169.909 508.923H203.811M169.909 542.824V576.726M169.909 542.824H203.811M169.909 576.726V610.627M169.909 576.726H203.811M169.909 610.627V644.528M169.909 610.627H203.811M169.909 644.528V678.43M169.909 644.528H203.811M169.909 678.43H203.811M203.811 0.402748V34.3041M203.811 0.402748H237.712M203.811 34.3041V68.2054M203.811 34.3041H237.712M203.811 68.2054V102.107M203.811 68.2054H237.712M203.811 102.107V136.008M203.811 102.107H237.712M203.811 136.008V169.909M203.811 136.008H237.712M203.811 169.909V203.811M203.811 169.909H237.712M203.811 203.811V237.712M203.811 203.811H237.712M203.811 237.712V271.614M203.811 237.712H237.712M203.811 271.614V305.515M203.811 271.614H237.712M203.811 305.515V339.416M203.811 305.515H237.712M203.811 339.416V373.318M203.811 339.416H237.712M203.811 373.318V407.219M203.811 373.318H237.712M203.811 407.219V441.12M203.811 407.219H237.712M203.811 441.12V475.022M203.811 441.12H237.712M203.811 475.022V508.923M203.811 475.022H237.712M203.811 508.923V542.824M203.811 508.923H237.712M203.811 542.824V576.726M203.811 542.824H237.712M203.811 576.726V610.627M203.811 576.726H237.712M203.811 610.627V644.528M203.811 610.627H237.712M203.811 644.528V678.43M203.811 644.528H237.712M203.811 678.43H237.712M237.712 0.402748V34.3041M237.712 0.402748H271.614M237.712 34.3041V68.2054M237.712 34.3041H271.614M237.712 68.2054V102.107M237.712 68.2054H271.614M237.712 102.107V136.008M237.712 102.107H271.614M237.712 136.008V169.909M237.712 136.008H271.614M237.712 169.909V203.811M237.712 169.909H271.614M237.712 203.811V237.712M237.712 203.811H271.614M237.712 237.712V271.614M237.712 237.712H271.614M237.712 271.614V305.515M237.712 271.614H271.614M237.712 305.515V339.416M237.712 305.515H271.614M237.712 339.416V373.318M237.712 339.416H271.614M237.712 373.318V407.219M237.712 373.318H271.614M237.712 407.219V441.12M237.712 407.219H271.614M237.712 441.12V475.022M237.712 441.12H271.614M237.712 475.022V508.923M237.712 475.022H271.614M237.712 508.923V542.824M237.712 508.923H271.614M237.712 542.824V576.726M237.712 542.824H271.614M237.712 576.726V610.627M237.712 576.726H271.614M237.712 610.627V644.528M237.712 610.627H271.614M237.712 644.528V678.43M237.712 644.528H271.614M237.712 678.43H271.614M271.614 0.402748V34.3041M271.614 0.402748H305.515M271.614 34.3041V68.2054M271.614 34.3041H305.515M271.614 68.2054V102.107M271.614 68.2054H305.515M271.614 102.107V136.008M271.614 102.107H305.515M271.614 136.008V169.909M271.614 136.008H305.515M271.614 169.909V203.811M271.614 169.909H305.515M271.614 203.811V237.712M271.614 203.811H305.515M271.614 237.712V271.614M271.614 237.712H305.515M271.614 271.614V305.515M271.614 271.614H305.515M271.614 305.515V339.416M271.614 305.515H305.515M271.614 339.416V373.318M271.614 339.416H305.515M271.614 373.318V407.219M271.614 373.318H305.515M271.614 407.219V441.12M271.614 407.219H305.515M271.614 441.12V475.022M271.614 441.12H305.515M271.614 475.022V508.923M271.614 475.022H305.515M271.614 508.923V542.824M271.614 508.923H305.515M271.614 542.824V576.726M271.614 542.824H305.515M271.614 576.726V610.627M271.614 576.726H305.515M271.614 610.627V644.528M271.614 610.627H305.515M271.614 644.528V678.43M271.614 644.528H305.515M271.614 678.43H305.515M305.515 0.402748V34.3041M305.515 0.402748H339.416M305.515 34.3041V68.2054M305.515 34.3041H339.416M305.515 68.2054V102.107M305.515 68.2054H339.416M305.515 102.107V136.008M305.515 102.107H339.416M305.515 136.008V169.909M305.515 136.008H339.416M305.515 169.909V203.811M305.515 169.909H339.416M305.515 203.811V237.712M305.515 203.811H339.416M305.515 237.712V271.614M305.515 237.712H339.416M305.515 271.614V305.515M305.515 271.614H339.416M305.515 305.515V339.416M305.515 305.515H339.416M305.515 339.416V373.318M305.515 339.416H339.416M305.515 373.318V407.219M305.515 373.318H339.416M305.515 407.219V441.12M305.515 407.219H339.416M305.515 441.12V475.022M305.515 441.12H339.416M305.515 475.022V508.923M305.515 475.022H339.416M305.515 508.923V542.824M305.515 508.923H339.416M305.515 542.824V576.726M305.515 542.824H339.416M305.515 576.726V610.627M305.515 576.726H339.416M305.515 610.627V644.528M305.515 610.627H339.416M305.515 644.528V678.43M305.515 644.528H339.416M305.515 678.43H339.416M339.416 0.402748V34.3041M339.416 0.402748H373.318M339.416 34.3041V68.2054M339.416 34.3041H373.318M339.416 68.2054V102.107M339.416 68.2054H373.318M339.416 102.107V136.008M339.416 102.107H373.318M339.416 136.008V169.909M339.416 136.008H373.318M339.416 169.909V203.811M339.416 169.909H373.318M339.416 203.811V237.712M339.416 203.811H373.318M339.416 237.712V271.614M339.416 237.712H373.318M339.416 271.614V305.515M339.416 271.614H373.318M339.416 305.515V339.416M339.416 305.515H373.318M339.416 339.416V373.318M339.416 339.416H373.318M339.416 373.318V407.219M339.416 373.318H373.318M339.416 407.219V441.12M339.416 407.219H373.318M339.416 441.12V475.022M339.416 441.12H373.318M339.416 475.022V508.923M339.416 475.022H373.318M339.416 508.923V542.824M339.416 508.923H373.318M339.416 542.824V576.726M339.416 542.824H373.318M339.416 576.726V610.627M339.416 576.726H373.318M339.416 610.627V644.528M339.416 610.627H373.318M339.416 644.528V678.43M339.416 644.528H373.318M339.416 678.43H373.318M373.318 0.402748V34.3041M373.318 0.402748H407.219M373.318 34.3041V68.2054M373.318 34.3041H407.219M373.318 68.2054V102.107M373.318 68.2054H407.219M373.318 102.107V136.008M373.318 102.107H407.219M373.318 136.008V169.909M373.318 136.008H407.219M373.318 169.909V203.811M373.318 169.909H407.219M373.318 203.811V237.712M373.318 203.811H407.219M373.318 237.712V271.614M373.318 237.712H407.219M373.318 271.614V305.515M373.318 271.614H407.219M373.318 305.515V339.416M373.318 305.515H407.219M373.318 339.416V373.318M373.318 339.416H407.219M373.318 373.318V407.219M373.318 373.318H407.219M373.318 407.219V441.12M373.318 407.219H407.219M373.318 441.12V475.022M373.318 441.12H407.219M373.318 475.022V508.923M373.318 475.022H407.219M373.318 508.923V542.824M373.318 508.923H407.219M373.318 542.824V576.726M373.318 542.824H407.219M373.318 576.726V610.627M373.318 576.726H407.219M373.318 610.627V644.528M373.318 610.627H407.219M373.318 644.528V678.43M373.318 644.528H407.219M373.318 678.43H407.219M407.219 0.402748V34.3041M407.219 0.402748H441.12M407.219 34.3041V68.2054M407.219 34.3041H441.12M407.219 68.2054V102.107M407.219 68.2054H441.12M407.219 102.107V136.008M407.219 102.107H441.12M407.219 136.008V169.909M407.219 136.008H441.12M407.219 169.909V203.811M407.219 169.909H441.12M407.219 203.811V237.712M407.219 203.811H441.12M407.219 237.712V271.614M407.219 237.712H441.12M407.219 271.614V305.515M407.219 271.614H441.12M407.219 305.515V339.416M407.219 305.515H441.12M407.219 339.416V373.318M407.219 339.416H441.12M407.219 373.318V407.219M407.219 373.318H441.12M407.219 407.219V441.12M407.219 407.219H441.12M407.219 441.12V475.022M407.219 441.12H441.12M407.219 475.022V508.923M407.219 475.022H441.12M407.219 508.923V542.824M407.219 508.923H441.12M407.219 542.824V576.726M407.219 542.824H441.12M407.219 576.726V610.627M407.219 576.726H441.12M407.219 610.627V644.528M407.219 610.627H441.12M407.219 644.528V678.43M407.219 644.528H441.12M407.219 678.43H441.12M441.12 0.402748V34.3041M441.12 0.402748H475.022M441.12 34.3041V68.2054M441.12 34.3041H475.022M441.12 68.2054V102.107M441.12 68.2054H475.022M441.12 102.107V136.008M441.12 102.107H475.022M441.12 136.008V169.909M441.12 136.008H475.022M441.12 169.909V203.811M441.12 169.909H475.022M441.12 203.811V237.712M441.12 203.811H475.022M441.12 237.712V271.614M441.12 237.712H475.022M441.12 271.614V305.515M441.12 271.614H475.022M441.12 305.515V339.416M441.12 305.515H475.022M441.12 339.416V373.318M441.12 339.416H475.022M441.12 373.318V407.219M441.12 373.318H475.022M441.12 407.219V441.12M441.12 407.219H475.022M441.12 441.12V475.022M441.12 441.12H475.022M441.12 475.022V508.923M441.12 475.022H475.022M441.12 508.923V542.824M441.12 508.923H475.022M441.12 542.824V576.726M441.12 542.824H475.022M441.12 576.726V610.627M441.12 576.726H475.022M441.12 610.627V644.528M441.12 610.627H475.022M441.12 644.528V678.43M441.12 644.528H475.022M441.12 678.43H475.022M475.022 0.402748V34.3041M475.022 0.402748H508.923M475.022 34.3041V68.2054M475.022 34.3041H508.923M475.022 68.2054V102.107M475.022 68.2054H508.923M475.022 102.107V136.008M475.022 102.107H508.923M475.022 136.008V169.909M475.022 136.008H508.923M475.022 169.909V203.811M475.022 169.909H508.923M475.022 203.811V237.712M475.022 203.811H508.923M475.022 237.712V271.614M475.022 237.712H508.923M475.022 271.614V305.515M475.022 271.614H508.923M475.022 305.515V339.416M475.022 305.515H508.923M475.022 339.416V373.318M475.022 339.416H508.923M475.022 373.318V407.219M475.022 373.318H508.923M475.022 407.219V441.12M475.022 407.219H508.923M475.022 441.12V475.022M475.022 441.12H508.923M475.022 475.022V508.923M475.022 475.022H508.923M475.022 508.923V542.824M475.022 508.923H508.923M475.022 542.824V576.726M475.022 542.824H508.923M475.022 576.726V610.627M475.022 576.726H508.923M475.022 610.627V644.528M475.022 610.627H508.923M475.022 644.528V678.43M475.022 644.528H508.923M475.022 678.43H508.923M508.923 0.402748V34.3041M508.923 0.402748H542.824M508.923 34.3041V68.2054M508.923 34.3041H542.824M508.923 68.2054V102.107M508.923 68.2054H542.824M508.923 102.107V136.008M508.923 102.107H542.824M508.923 136.008V169.909M508.923 136.008H542.824M508.923 169.909V203.811M508.923 169.909H542.824M508.923 203.811V237.712M508.923 203.811H542.824M508.923 237.712V271.614M508.923 237.712H542.824M508.923 271.614V305.515M508.923 271.614H542.824M508.923 305.515V339.416M508.923 305.515H542.824M508.923 339.416V373.318M508.923 339.416H542.824M508.923 373.318V407.219M508.923 373.318H542.824M508.923 407.219V441.12M508.923 407.219H542.824M508.923 441.12V475.022M508.923 441.12H542.824M508.923 475.022V508.923M508.923 475.022H542.824M508.923 508.923V542.824M508.923 508.923H542.824M508.923 542.824V576.726M508.923 542.824H542.824M508.923 576.726V610.627M508.923 576.726H542.824M508.923 610.627V644.528M508.923 610.627H542.824M508.923 644.528V678.43M508.923 644.528H542.824M508.923 678.43H542.824M542.824 0.402748V34.3041M542.824 0.402748H576.726M542.824 34.3041V68.2054M542.824 34.3041H576.726M542.824 68.2054V102.107M542.824 68.2054H576.726M542.824 102.107V136.008M542.824 102.107H576.726M542.824 136.008V169.909M542.824 136.008H576.726M542.824 169.909V203.811M542.824 169.909H576.726M542.824 203.811V237.712M542.824 203.811H576.726M542.824 237.712V271.614M542.824 237.712H576.726M542.824 271.614V305.515M542.824 271.614H576.726M542.824 305.515V339.416M542.824 305.515H576.726M542.824 339.416V373.318M542.824 339.416H576.726M542.824 373.318V407.219M542.824 373.318H576.726M542.824 407.219V441.12M542.824 407.219H576.726M542.824 441.12V475.022M542.824 441.12H576.726M542.824 475.022V508.923M542.824 475.022H576.726M542.824 508.923V542.824M542.824 508.923H576.726M542.824 542.824V576.726M542.824 542.824H576.726M542.824 576.726V610.627M542.824 576.726H576.726M542.824 610.627V644.528M542.824 610.627H576.726M542.824 644.528V678.43M542.824 644.528H576.726M542.824 678.43H576.726M576.726 0.402748V34.3041M576.726 0.402748H610.627M576.726 34.3041V68.2054M576.726 34.3041H610.627M576.726 68.2054V102.107M576.726 68.2054H610.627M576.726 102.107V136.008M576.726 102.107H610.627M576.726 136.008V169.909M576.726 136.008H610.627M576.726 169.909V203.811M576.726 169.909H610.627M576.726 203.811V237.712M576.726 203.811H610.627M576.726 237.712V271.614M576.726 237.712H610.627M576.726 271.614V305.515M576.726 271.614H610.627M576.726 305.515V339.416M576.726 305.515H610.627M576.726 339.416V373.318M576.726 339.416H610.627M576.726 373.318V407.219M576.726 373.318H610.627M576.726 407.219V441.12M576.726 407.219H610.627M576.726 441.12V475.022M576.726 441.12H610.627M576.726 475.022V508.923M576.726 475.022H610.627M576.726 508.923V542.824M576.726 508.923H610.627M576.726 542.824V576.726M576.726 542.824H610.627M576.726 576.726V610.627M576.726 576.726H610.627M576.726 610.627V644.528M576.726 610.627H610.627M576.726 644.528V678.43M576.726 644.528H610.627M576.726 678.43H610.627M610.627 0.402748V34.3041M610.627 0.402748H644.528M610.627 34.3041V68.2054M610.627 34.3041H644.528M610.627 68.2054V102.107M610.627 68.2054H644.528M610.627 102.107V136.008M610.627 102.107H644.528M610.627 136.008V169.909M610.627 136.008H644.528M610.627 169.909V203.811M610.627 169.909H644.528M610.627 203.811V237.712M610.627 203.811H644.528M610.627 237.712V271.614M610.627 237.712H644.528M610.627 271.614V305.515M610.627 271.614H644.528M610.627 305.515V339.416M610.627 305.515H644.528M610.627 339.416V373.318M610.627 339.416H644.528M610.627 373.318V407.219M610.627 373.318H644.528M610.627 407.219V441.12M610.627 407.219H644.528M610.627 441.12V475.022M610.627 441.12H644.528M610.627 475.022V508.923M610.627 475.022H644.528M610.627 508.923V542.824M610.627 508.923H644.528M610.627 542.824V576.726M610.627 542.824H644.528M610.627 576.726V610.627M610.627 576.726H644.528M610.627 610.627V644.528M610.627 610.627H644.528M610.627 644.528V678.43M610.627 644.528H644.528M610.627 678.43H644.528M644.528 0.402748V34.3041M644.528 0.402748H678.43M644.528 34.3041V68.2054M644.528 34.3041H678.43M644.528 68.2054V102.107M644.528 68.2054H678.43M644.528 102.107V136.008M644.528 102.107H678.43M644.528 136.008V169.909M644.528 136.008H678.43M644.528 169.909V203.811M644.528 169.909H678.43M644.528 203.811V237.712M644.528 203.811H678.43M644.528 237.712V271.614M644.528 237.712H678.43M644.528 271.614V305.515M644.528 271.614H678.43M644.528 305.515V339.416M644.528 305.515H678.43M644.528 339.416V373.318M644.528 339.416H678.43M644.528 373.318V407.219M644.528 373.318H678.43M644.528 407.219V441.12M644.528 407.219H678.43M644.528 441.12V475.022M644.528 441.12H678.43M644.528 475.022V508.923M644.528 475.022H678.43M644.528 508.923V542.824M644.528 508.923H678.43M644.528 542.824V576.726M644.528 542.824H678.43M644.528 576.726V610.627M644.528 576.726H678.43M644.528 610.627V644.528M644.528 610.627H678.43M644.528 644.528V678.43M644.528 644.528H678.43M644.528 678.43H678.43M678.43 0.402748V34.3041M678.43 0.402748H712.331M678.43 34.3041V68.2054M678.43 34.3041H712.331M678.43 68.2054V102.107M678.43 68.2054H712.331M678.43 102.107V136.008M678.43 102.107H712.331M678.43 136.008V169.909M678.43 136.008H712.331M678.43 169.909V203.811M678.43 169.909H712.331M678.43 203.811V237.712M678.43 203.811H712.331M678.43 237.712V271.614M678.43 237.712H712.331M678.43 271.614V305.515M678.43 271.614H712.331M678.43 305.515V339.416M678.43 305.515H712.331M678.43 339.416V373.318M678.43 339.416H712.331M678.43 373.318V407.219M678.43 373.318H712.331M678.43 407.219V441.12M678.43 407.219H712.331M678.43 441.12V475.022M678.43 441.12H712.331M678.43 475.022V508.923M678.43 475.022H712.331M678.43 508.923V542.824M678.43 508.923H712.331M678.43 542.824V576.726M678.43 542.824H712.331M678.43 576.726V610.627M678.43 576.726H712.331M678.43 610.627V644.528M678.43 610.627H712.331M678.43 644.528V678.43M678.43 644.528H712.331M678.43 678.43H712.331M712.331 0.402748V34.3041M712.331 0.402748H746.232M712.331 34.3041V68.2054M712.331 34.3041H746.232M712.331 68.2054V102.107M712.331 68.2054H746.232M712.331 102.107V136.008M712.331 102.107H746.232M712.331 136.008V169.909M712.331 136.008H746.232M712.331 169.909V203.811M712.331 169.909H746.232M712.331 203.811V237.712M712.331 203.811H746.232M712.331 237.712V271.614M712.331 237.712H746.232M712.331 271.614V305.515M712.331 271.614H746.232M712.331 305.515V339.416M712.331 305.515H746.232M712.331 339.416V373.318M712.331 339.416H746.232M712.331 373.318V407.219M712.331 373.318H746.232M712.331 407.219V441.12M712.331 407.219H746.232M712.331 441.12V475.022M712.331 441.12H746.232M712.331 475.022V508.923M712.331 475.022H746.232M712.331 508.923V542.824M712.331 508.923H746.232M712.331 542.824V576.726M712.331 542.824H746.232M712.331 576.726V610.627M712.331 576.726H746.232M712.331 610.627V644.528M712.331 610.627H746.232M712.331 644.528V678.43M712.331 644.528H746.232M712.331 678.43H746.232M746.232 0.402748V34.3041M746.232 0.402748H780.134M746.232 34.3041V68.2054M746.232 34.3041H780.134M746.232 68.2054V102.107M746.232 68.2054H780.134M746.232 102.107V136.008M746.232 102.107H780.134M746.232 136.008V169.909M746.232 136.008H780.134M746.232 169.909V203.811M746.232 169.909H780.134M746.232 203.811V237.712M746.232 203.811H780.134M746.232 237.712V271.614M746.232 237.712H780.134M746.232 271.614V305.515M746.232 271.614H780.134M746.232 305.515V339.416M746.232 305.515H780.134M746.232 339.416V373.318M746.232 339.416H780.134M746.232 373.318V407.219M746.232 373.318H780.134M746.232 407.219V441.12M746.232 407.219H780.134M746.232 441.12V475.022M746.232 441.12H780.134M746.232 475.022V508.923M746.232 475.022H780.134M746.232 508.923V542.824M746.232 508.923H780.134M746.232 542.824V576.726M746.232 542.824H780.134M746.232 576.726V610.627M746.232 576.726H780.134M746.232 610.627V644.528M746.232 610.627H780.134M746.232 644.528V678.43M746.232 644.528H780.134M746.232 678.43H780.134M780.134 0.402748V34.3041M780.134 0.402748H814.035M780.134 34.3041V68.2054M780.134 34.3041H814.035M780.134 68.2054V102.107M780.134 68.2054H814.035M780.134 102.107V136.008M780.134 102.107H814.035M780.134 136.008V169.909M780.134 136.008H814.035M780.134 169.909V203.811M780.134 169.909H814.035M780.134 203.811V237.712M780.134 203.811H814.035M780.134 237.712V271.614M780.134 237.712H814.035M780.134 271.614V305.515M780.134 271.614H814.035M780.134 305.515V339.416M780.134 305.515H814.035M780.134 339.416V373.318M780.134 339.416H814.035M780.134 373.318V407.219M780.134 373.318H814.035M780.134 407.219V441.12M780.134 407.219H814.035M780.134 441.12V475.022M780.134 441.12H814.035M780.134 475.022V508.923M780.134 475.022H814.035M780.134 508.923V542.824M780.134 508.923H814.035M780.134 542.824V576.726M780.134 542.824H814.035M780.134 576.726V610.627M780.134 576.726H814.035M780.134 610.627V644.528M780.134 610.627H814.035M780.134 644.528V678.43M780.134 644.528H814.035M780.134 678.43H814.035M814.035 0.402748V34.3041M814.035 0.402748H847.936M814.035 34.3041V68.2054M814.035 34.3041H847.936M814.035 68.2054V102.107M814.035 68.2054H847.936M814.035 102.107V136.008M814.035 102.107H847.936M814.035 136.008V169.909M814.035 136.008H847.936M814.035 169.909V203.811M814.035 169.909H847.936M814.035 203.811V237.712M814.035 203.811H847.936M814.035 237.712V271.614M814.035 237.712H847.936M814.035 271.614V305.515M814.035 271.614H847.936M814.035 305.515V339.416M814.035 305.515H847.936M814.035 339.416V373.318M814.035 339.416H847.936M814.035 373.318V407.219M814.035 373.318H847.936M814.035 407.219V441.12M814.035 407.219H847.936M814.035 441.12V475.022M814.035 441.12H847.936M814.035 475.022V508.923M814.035 475.022H847.936M814.035 508.923V542.824M814.035 508.923H847.936M814.035 542.824V576.726M814.035 542.824H847.936M814.035 576.726V610.627M814.035 576.726H847.936M814.035 610.627V644.528M814.035 610.627H847.936M814.035 644.528V678.43M814.035 644.528H847.936M814.035 678.43H847.936M847.936 0.402748V34.3041M847.936 0.402748H881.838M847.936 34.3041V68.2054M847.936 34.3041H881.838M847.936 68.2054V102.107M847.936 68.2054H881.838M847.936 102.107V136.008M847.936 102.107H881.838M847.936 136.008V169.909M847.936 136.008H881.838M847.936 169.909V203.811M847.936 169.909H881.838M847.936 203.811V237.712M847.936 203.811H881.838M847.936 237.712V271.614M847.936 237.712H881.838M847.936 271.614V305.515M847.936 271.614H881.838M847.936 305.515V339.416M847.936 305.515H881.838M847.936 339.416V373.318M847.936 339.416H881.838M847.936 373.318V407.219M847.936 373.318H881.838M847.936 407.219V441.12M847.936 407.219H881.838M847.936 441.12V475.022M847.936 441.12H881.838M847.936 475.022V508.923M847.936 475.022H881.838M847.936 508.923V542.824M847.936 508.923H881.838M847.936 542.824V576.726M847.936 542.824H881.838M847.936 576.726V610.627M847.936 576.726H881.838M847.936 610.627V644.528M847.936 610.627H881.838M847.936 644.528V678.43M847.936 644.528H881.838M847.936 678.43H881.838M881.838 0.402748V34.3041M881.838 0.402748H915.739M881.838 34.3041V68.2054M881.838 34.3041H915.739M881.838 68.2054V102.107M881.838 68.2054H915.739M881.838 102.107V136.008M881.838 102.107H915.739M881.838 136.008V169.909M881.838 136.008H915.739M881.838 169.909V203.811M881.838 169.909H915.739M881.838 203.811V237.712M881.838 203.811H915.739M881.838 237.712V271.614M881.838 237.712H915.739M881.838 271.614V305.515M881.838 271.614H915.739M881.838 305.515V339.416M881.838 305.515H915.739M881.838 339.416V373.318M881.838 339.416H915.739M881.838 373.318V407.219M881.838 373.318H915.739M881.838 407.219V441.12M881.838 407.219H915.739M881.838 441.12V475.022M881.838 441.12H915.739M881.838 475.022V508.923M881.838 475.022H915.739M881.838 508.923V542.824M881.838 508.923H915.739M881.838 542.824V576.726M881.838 542.824H915.739M881.838 576.726V610.627M881.838 576.726H915.739M881.838 610.627V644.528M881.838 610.627H915.739M881.838 644.528V678.43M881.838 644.528H915.739M881.838 678.43H915.739M915.739 0.402748V34.3041M915.739 0.402748H949.64M915.739 34.3041V68.2054M915.739 34.3041H949.64M915.739 68.2054V102.107M915.739 68.2054H949.64M915.739 102.107V136.008M915.739 102.107H949.64M915.739 136.008V169.909M915.739 136.008H949.64M915.739 169.909V203.811M915.739 169.909H949.64M915.739 203.811V237.712M915.739 203.811H949.64M915.739 237.712V271.614M915.739 237.712H949.64M915.739 271.614V305.515M915.739 271.614H949.64M915.739 305.515V339.416M915.739 305.515H949.64M915.739 339.416V373.318M915.739 339.416H949.64M915.739 373.318V407.219M915.739 373.318H949.64M915.739 407.219V441.12M915.739 407.219H949.64M915.739 441.12V475.022M915.739 441.12H949.64M915.739 475.022V508.923M915.739 475.022H949.64M915.739 508.923V542.824M915.739 508.923H949.64M915.739 542.824V576.726M915.739 542.824H949.64M915.739 576.726V610.627M915.739 576.726H949.64M915.739 610.627V644.528M915.739 610.627H949.64M915.739 644.528V678.43M915.739 644.528H949.64M915.739 678.43H949.64M949.64 0.402748V34.3041M949.64 0.402748H983.542M949.64 34.3041V68.2054M949.64 34.3041H983.542M949.64 68.2054V102.107M949.64 68.2054H983.542M949.64 102.107V136.008M949.64 102.107H983.542M949.64 136.008V169.909M949.64 136.008H983.542M949.64 169.909V203.811M949.64 169.909H983.542M949.64 203.811V237.712M949.64 203.811H983.542M949.64 237.712V271.614M949.64 237.712H983.542M949.64 271.614V305.515M949.64 271.614H983.542M949.64 305.515V339.416M949.64 305.515H983.542M949.64 339.416V373.318M949.64 339.416H983.542M949.64 373.318V407.219M949.64 373.318H983.542M949.64 407.219V441.12M949.64 407.219H983.542M949.64 441.12V475.022M949.64 441.12H983.542M949.64 475.022V508.923M949.64 475.022H983.542M949.64 508.923V542.824M949.64 508.923H983.542M949.64 542.824V576.726M949.64 542.824H983.542M949.64 576.726V610.627M949.64 576.726H983.542M949.64 610.627V644.528M949.64 610.627H983.542M949.64 644.528V678.43M949.64 644.528H983.542M949.64 678.43H983.542M983.542 0.402748V34.3041M983.542 0.402748H1017.44M983.542 34.3041V68.2054M983.542 34.3041H1017.44M983.542 68.2054V102.107M983.542 68.2054H1017.44M983.542 102.107V136.008M983.542 102.107H1017.44M983.542 136.008V169.909M983.542 136.008H1017.44M983.542 169.909V203.811M983.542 169.909H1017.44M983.542 203.811V237.712M983.542 203.811H1017.44M983.542 237.712V271.614M983.542 237.712H1017.44M983.542 271.614V305.515M983.542 271.614H1017.44M983.542 305.515V339.416M983.542 305.515H1017.44M983.542 339.416V373.318M983.542 339.416H1017.44M983.542 373.318V407.219M983.542 373.318H1017.44M983.542 407.219V441.12M983.542 407.219H1017.44M983.542 441.12V475.022M983.542 441.12H1017.44M983.542 475.022V508.923M983.542 475.022H1017.44M983.542 508.923V542.824M983.542 508.923H1017.44M983.542 542.824V576.726M983.542 542.824H1017.44M983.542 576.726V610.627M983.542 576.726H1017.44M983.542 610.627V644.528M983.542 610.627H1017.44M983.542 644.528V678.43M983.542 644.528H1017.44M983.542 678.43H1017.44M1017.44 0.402748V34.3041M1017.44 0.402748H1051.34M1017.44 34.3041V68.2054M1017.44 34.3041H1051.34M1017.44 68.2054V102.107M1017.44 68.2054H1051.34M1017.44 102.107V136.008M1017.44 102.107H1051.34M1017.44 136.008V169.909M1017.44 136.008H1051.34M1017.44 169.909V203.811M1017.44 169.909H1051.34M1017.44 203.811V237.712M1017.44 203.811H1051.34M1017.44 237.712V271.614M1017.44 237.712H1051.34M1017.44 271.614V305.515M1017.44 271.614H1051.34M1017.44 305.515V339.416M1017.44 305.515H1051.34M1017.44 339.416V373.318M1017.44 339.416H1051.34M1017.44 373.318V407.219M1017.44 373.318H1051.34M1017.44 407.219V441.12M1017.44 407.219H1051.34M1017.44 441.12V475.022M1017.44 441.12H1051.34M1017.44 475.022V508.923M1017.44 475.022H1051.34M1017.44 508.923V542.824M1017.44 508.923H1051.34M1017.44 542.824V576.726M1017.44 542.824H1051.34M1017.44 576.726V610.627M1017.44 576.726H1051.34M1017.44 610.627V644.528M1017.44 610.627H1051.34M1017.44 644.528V678.43M1017.44 644.528H1051.34M1017.44 678.43H1051.34M1051.34 0.402748V34.3041M1051.34 0.402748H1085.25M1051.34 34.3041V68.2054M1051.34 34.3041H1085.25M1051.34 68.2054V102.107M1051.34 68.2054H1085.25M1051.34 102.107V136.008M1051.34 102.107H1085.25M1051.34 136.008V169.909M1051.34 136.008H1085.25M1051.34 169.909V203.811M1051.34 169.909H1085.25M1051.34 203.811V237.712M1051.34 203.811H1085.25M1051.34 237.712V271.614M1051.34 237.712H1085.25M1051.34 271.614V305.515M1051.34 271.614H1085.25M1051.34 305.515V339.416M1051.34 305.515H1085.25M1051.34 339.416V373.318M1051.34 339.416H1085.25M1051.34 373.318V407.219M1051.34 373.318H1085.25M1051.34 407.219V441.12M1051.34 407.219H1085.25M1051.34 441.12V475.022M1051.34 441.12H1085.25M1051.34 475.022V508.923M1051.34 475.022H1085.25M1051.34 508.923V542.824M1051.34 508.923H1085.25M1051.34 542.824V576.726M1051.34 542.824H1085.25M1051.34 576.726V610.627M1051.34 576.726H1085.25M1051.34 610.627V644.528M1051.34 610.627H1085.25M1051.34 644.528V678.43M1051.34 644.528H1085.25M1051.34 678.43H1085.25M1085.25 0.402748V34.3041M1085.25 0.402748H1119.15M1085.25 34.3041V68.2054M1085.25 34.3041H1119.15M1085.25 68.2054V102.107M1085.25 68.2054H1119.15M1085.25 102.107V136.008M1085.25 102.107H1119.15M1085.25 136.008V169.909M1085.25 136.008H1119.15M1085.25 169.909V203.811M1085.25 169.909H1119.15M1085.25 203.811V237.712M1085.25 203.811H1119.15M1085.25 237.712V271.614M1085.25 237.712H1119.15M1085.25 271.614V305.515M1085.25 271.614H1119.15M1085.25 305.515V339.416M1085.25 305.515H1119.15M1085.25 339.416V373.318M1085.25 339.416H1119.15M1085.25 373.318V407.219M1085.25 373.318H1119.15M1085.25 407.219V441.12M1085.25 407.219H1119.15M1085.25 441.12V475.022M1085.25 441.12H1119.15M1085.25 475.022V508.923M1085.25 475.022H1119.15M1085.25 508.923V542.824M1085.25 508.923H1119.15M1085.25 542.824V576.726M1085.25 542.824H1119.15M1085.25 576.726V610.627M1085.25 576.726H1119.15M1085.25 610.627V644.528M1085.25 610.627H1119.15M1085.25 644.528V678.43M1085.25 644.528H1119.15M1085.25 678.43H1119.15M1119.15 0.402748V34.3041M1119.15 0.402748H1153.05M1119.15 34.3041V68.2054M1119.15 34.3041H1153.05M1119.15 68.2054V102.107M1119.15 68.2054H1153.05M1119.15 102.107V136.008M1119.15 102.107H1153.05M1119.15 136.008V169.909M1119.15 136.008H1153.05M1119.15 169.909V203.811M1119.15 169.909H1153.05M1119.15 203.811V237.712M1119.15 203.811H1153.05M1119.15 237.712V271.614M1119.15 237.712H1153.05M1119.15 271.614V305.515M1119.15 271.614H1153.05M1119.15 305.515V339.416M1119.15 305.515H1153.05M1119.15 339.416V373.318M1119.15 339.416H1153.05M1119.15 373.318V407.219M1119.15 373.318H1153.05M1119.15 407.219V441.12M1119.15 407.219H1153.05M1119.15 441.12V475.022M1119.15 441.12H1153.05M1119.15 475.022V508.923M1119.15 475.022H1153.05M1119.15 508.923V542.824M1119.15 508.923H1153.05M1119.15 542.824V576.726M1119.15 542.824H1153.05M1119.15 576.726V610.627M1119.15 576.726H1153.05M1119.15 610.627V644.528M1119.15 610.627H1153.05M1119.15 644.528V678.43M1119.15 644.528H1153.05M1119.15 678.43H1153.05M1153.05 0.402748V34.3041M1153.05 0.402748H1186.95M1153.05 34.3041V68.2054M1153.05 34.3041H1186.95M1153.05 68.2054V102.107M1153.05 68.2054H1186.95M1153.05 102.107V136.008M1153.05 102.107H1186.95M1153.05 136.008V169.909M1153.05 136.008H1186.95M1153.05 169.909V203.811M1153.05 169.909H1186.95M1153.05 203.811V237.712M1153.05 203.811H1186.95M1153.05 237.712V271.614M1153.05 237.712H1186.95M1153.05 271.614V305.515M1153.05 271.614H1186.95M1153.05 305.515V339.416M1153.05 305.515H1186.95M1153.05 339.416V373.318M1153.05 339.416H1186.95M1153.05 373.318V407.219M1153.05 373.318H1186.95M1153.05 407.219V441.12M1153.05 407.219H1186.95M1153.05 441.12V475.022M1153.05 441.12H1186.95M1153.05 475.022V508.923M1153.05 475.022H1186.95M1153.05 508.923V542.824M1153.05 508.923H1186.95M1153.05 542.824V576.726M1153.05 542.824H1186.95M1153.05 576.726V610.627M1153.05 576.726H1186.95M1153.05 610.627V644.528M1153.05 610.627H1186.95M1153.05 644.528V678.43M1153.05 644.528H1186.95M1153.05 678.43H1186.95M1186.95 0.402748V34.3041M1186.95 0.402748H1220.85M1186.95 34.3041V68.2054M1186.95 34.3041H1220.85M1186.95 68.2054V102.107M1186.95 68.2054H1220.85M1186.95 102.107V136.008M1186.95 102.107H1220.85M1186.95 136.008V169.909M1186.95 136.008H1220.85M1186.95 169.909V203.811M1186.95 169.909H1220.85M1186.95 203.811V237.712M1186.95 203.811H1220.85M1186.95 237.712V271.614M1186.95 237.712H1220.85M1186.95 271.614V305.515M1186.95 271.614H1220.85M1186.95 305.515V339.416M1186.95 305.515H1220.85M1186.95 339.416V373.318M1186.95 339.416H1220.85M1186.95 373.318V407.219M1186.95 373.318H1220.85M1186.95 407.219V441.12M1186.95 407.219H1220.85M1186.95 441.12V475.022M1186.95 441.12H1220.85M1186.95 475.022V508.923M1186.95 475.022H1220.85M1186.95 508.923V542.824M1186.95 508.923H1220.85M1186.95 542.824V576.726M1186.95 542.824H1220.85M1186.95 576.726V610.627M1186.95 576.726H1220.85M1186.95 610.627V644.528M1186.95 610.627H1220.85M1186.95 644.528V678.43M1186.95 644.528H1220.85M1186.95 678.43H1220.85M1220.85 0.402748V34.3041M1220.85 0.402748H1254.75M1220.85 34.3041V68.2054M1220.85 34.3041H1254.75M1220.85 68.2054V102.107M1220.85 68.2054H1254.75M1220.85 102.107V136.008M1220.85 102.107H1254.75M1220.85 136.008V169.909M1220.85 136.008H1254.75M1220.85 169.909V203.811M1220.85 169.909H1254.75M1220.85 203.811V237.712M1220.85 203.811H1254.75M1220.85 237.712V271.614M1220.85 237.712H1254.75M1220.85 271.614V305.515M1220.85 271.614H1254.75M1220.85 305.515V339.416M1220.85 305.515H1254.75M1220.85 339.416V373.318M1220.85 339.416H1254.75M1220.85 373.318V407.219M1220.85 373.318H1254.75M1220.85 407.219V441.12M1220.85 407.219H1254.75M1220.85 441.12V475.022M1220.85 441.12H1254.75M1220.85 475.022V508.923M1220.85 475.022H1254.75M1220.85 508.923V542.824M1220.85 508.923H1254.75M1220.85 542.824V576.726M1220.85 542.824H1254.75M1220.85 576.726V610.627M1220.85 576.726H1254.75M1220.85 610.627V644.528M1220.85 610.627H1254.75M1220.85 644.528V678.43M1220.85 644.528H1254.75M1220.85 678.43H1254.75M1254.75 0.402748V34.3041M1254.75 0.402748H1288.65M1254.75 34.3041V68.2054M1254.75 34.3041H1288.65M1254.75 68.2054V102.107M1254.75 68.2054H1288.65M1254.75 102.107V136.008M1254.75 102.107H1288.65M1254.75 136.008V169.909M1254.75 136.008H1288.65M1254.75 169.909V203.811M1254.75 169.909H1288.65M1254.75 203.811V237.712M1254.75 203.811H1288.65M1254.75 237.712V271.614M1254.75 237.712H1288.65M1254.75 271.614V305.515M1254.75 271.614H1288.65M1254.75 305.515V339.416M1254.75 305.515H1288.65M1254.75 339.416V373.318M1254.75 339.416H1288.65M1254.75 373.318V407.219M1254.75 373.318H1288.65M1254.75 407.219V441.12M1254.75 407.219H1288.65M1254.75 441.12V475.022M1254.75 441.12H1288.65M1254.75 475.022V508.923M1254.75 475.022H1288.65M1254.75 508.923V542.824M1254.75 508.923H1288.65M1254.75 542.824V576.726M1254.75 542.824H1288.65M1254.75 576.726V610.627M1254.75 576.726H1288.65M1254.75 610.627V644.528M1254.75 610.627H1288.65M1254.75 644.528V678.43M1254.75 644.528H1288.65M1254.75 678.43H1288.65M1288.65 0.402748V34.3041M1288.65 0.402748H1322.56M1288.65 34.3041V68.2054M1288.65 34.3041H1322.56M1288.65 68.2054V102.107M1288.65 68.2054H1322.56M1288.65 102.107V136.008M1288.65 102.107H1322.56M1288.65 136.008V169.909M1288.65 136.008H1322.56M1288.65 169.909V203.811M1288.65 169.909H1322.56M1288.65 203.811V237.712M1288.65 203.811H1322.56M1288.65 237.712V271.614M1288.65 237.712H1322.56M1288.65 271.614V305.515M1288.65 271.614H1322.56M1288.65 305.515V339.416M1288.65 305.515H1322.56M1288.65 339.416V373.318M1288.65 339.416H1322.56M1288.65 373.318V407.219M1288.65 373.318H1322.56M1288.65 407.219V441.12M1288.65 407.219H1322.56M1288.65 441.12V475.022M1288.65 441.12H1322.56M1288.65 475.022V508.923M1288.65 475.022H1322.56M1288.65 508.923V542.824M1288.65 508.923H1322.56M1288.65 542.824V576.726M1288.65 542.824H1322.56M1288.65 576.726V610.627M1288.65 576.726H1322.56M1288.65 610.627V644.528M1288.65 610.627H1322.56M1288.65 644.528V678.43M1288.65 644.528H1322.56M1288.65 678.43H1322.56M1322.56 0.402748V34.3041M1322.56 0.402748H1356.46M1322.56 34.3041V68.2054M1322.56 34.3041H1356.46M1322.56 68.2054V102.107M1322.56 68.2054H1356.46M1322.56 102.107V136.008M1322.56 102.107H1356.46M1322.56 136.008V169.909M1322.56 136.008H1356.46M1322.56 169.909V203.811M1322.56 169.909H1356.46M1322.56 203.811V237.712M1322.56 203.811H1356.46M1322.56 237.712V271.614M1322.56 237.712H1356.46M1322.56 271.614V305.515M1322.56 271.614H1356.46M1322.56 305.515V339.416M1322.56 305.515H1356.46M1322.56 339.416V373.318M1322.56 339.416H1356.46M1322.56 373.318V407.219M1322.56 373.318H1356.46M1322.56 407.219V441.12M1322.56 407.219H1356.46M1322.56 441.12V475.022M1322.56 441.12H1356.46M1322.56 475.022V508.923M1322.56 475.022H1356.46M1322.56 508.923V542.824M1322.56 508.923H1356.46M1322.56 542.824V576.726M1322.56 542.824H1356.46M1322.56 576.726V610.627M1322.56 576.726H1356.46M1322.56 610.627V644.528M1322.56 610.627H1356.46M1322.56 644.528V678.43M1322.56 644.528H1356.46M1322.56 678.43H1356.46M1356.46 0.402748V34.3041M1356.46 0.402748H1390.36M1356.46 34.3041V68.2054M1356.46 34.3041H1390.36M1356.46 68.2054V102.107M1356.46 68.2054H1390.36M1356.46 102.107V136.008M1356.46 102.107H1390.36M1356.46 136.008V169.909M1356.46 136.008H1390.36M1356.46 169.909V203.811M1356.46 169.909H1390.36M1356.46 203.811V237.712M1356.46 203.811H1390.36M1356.46 237.712V271.614M1356.46 237.712H1390.36M1356.46 271.614V305.515M1356.46 271.614H1390.36M1356.46 305.515V339.416M1356.46 305.515H1390.36M1356.46 339.416V373.318M1356.46 339.416H1390.36M1356.46 373.318V407.219M1356.46 373.318H1390.36M1356.46 407.219V441.12M1356.46 407.219H1390.36M1356.46 441.12V475.022M1356.46 441.12H1390.36M1356.46 475.022V508.923M1356.46 475.022H1390.36M1356.46 508.923V542.824M1356.46 508.923H1390.36M1356.46 542.824V576.726M1356.46 542.824H1390.36M1356.46 576.726V610.627M1356.46 576.726H1390.36M1356.46 610.627V644.528M1356.46 610.627H1390.36M1356.46 644.528V678.43M1356.46 644.528H1390.36M1356.46 678.43H1390.36M1390.36 0.402748V34.3041M1390.36 0.402748H1424.26M1390.36 34.3041V68.2054M1390.36 34.3041H1424.26M1390.36 68.2054V102.107M1390.36 68.2054H1424.26M1390.36 102.107V136.008M1390.36 102.107H1424.26M1390.36 136.008V169.909M1390.36 136.008H1424.26M1390.36 169.909V203.811M1390.36 169.909H1424.26M1390.36 203.811V237.712M1390.36 203.811H1424.26M1390.36 237.712V271.614M1390.36 237.712H1424.26M1390.36 271.614V305.515M1390.36 271.614H1424.26M1390.36 305.515V339.416M1390.36 305.515H1424.26M1390.36 339.416V373.318M1390.36 339.416H1424.26M1390.36 373.318V407.219M1390.36 373.318H1424.26M1390.36 407.219V441.12M1390.36 407.219H1424.26M1390.36 441.12V475.022M1390.36 441.12H1424.26M1390.36 475.022V508.923M1390.36 475.022H1424.26M1390.36 508.923V542.824M1390.36 508.923H1424.26M1390.36 542.824V576.726M1390.36 542.824H1424.26M1390.36 576.726V610.627M1390.36 576.726H1424.26M1390.36 610.627V644.528M1390.36 610.627H1424.26M1390.36 644.528V678.43M1390.36 644.528H1424.26M1390.36 678.43H1424.26M1424.26 0.402748V34.3041M1424.26 0.402748H1458.16M1424.26 34.3041V68.2054M1424.26 34.3041H1458.16M1424.26 68.2054V102.107M1424.26 68.2054H1458.16M1424.26 102.107V136.008M1424.26 102.107H1458.16M1424.26 136.008V169.909M1424.26 136.008H1458.16M1424.26 169.909V203.811M1424.26 169.909H1458.16M1424.26 203.811V237.712M1424.26 203.811H1458.16M1424.26 237.712V271.614M1424.26 237.712H1458.16M1424.26 271.614V305.515M1424.26 271.614H1458.16M1424.26 305.515V339.416M1424.26 305.515H1458.16M1424.26 339.416V373.318M1424.26 339.416H1458.16M1424.26 373.318V407.219M1424.26 373.318H1458.16M1424.26 407.219V441.12M1424.26 407.219H1458.16M1424.26 441.12V475.022M1424.26 441.12H1458.16M1424.26 475.022V508.923M1424.26 475.022H1458.16M1424.26 508.923V542.824M1424.26 508.923H1458.16M1424.26 542.824V576.726M1424.26 542.824H1458.16M1424.26 576.726V610.627M1424.26 576.726H1458.16M1424.26 610.627V644.528M1424.26 610.627H1458.16M1424.26 644.528V678.43M1424.26 644.528H1458.16M1424.26 678.43H1458.16M1458.16 0.402748V34.3041M1458.16 0.402748H1492.06V34.3041M1458.16 34.3041V68.2054M1458.16 34.3041H1492.06M1458.16 68.2054V102.107M1458.16 68.2054H1492.06M1458.16 102.107V136.008M1458.16 102.107H1492.06M1458.16 136.008V169.909M1458.16 136.008H1492.06M1458.16 169.909V203.811M1458.16 169.909H1492.06M1458.16 203.811V237.712M1458.16 203.811H1492.06M1458.16 237.712V271.614M1458.16 237.712H1492.06M1458.16 271.614V305.515M1458.16 271.614H1492.06M1458.16 305.515V339.416M1458.16 305.515H1492.06M1458.16 339.416V373.318M1458.16 339.416H1492.06M1458.16 373.318V407.219M1458.16 373.318H1492.06M1458.16 407.219V441.12M1458.16 407.219H1492.06M1458.16 441.12V475.022M1458.16 441.12H1492.06M1458.16 475.022V508.923M1458.16 475.022H1492.06M1458.16 508.923V542.824M1458.16 508.923H1492.06M1458.16 542.824V576.726M1458.16 542.824H1492.06M1458.16 576.726V610.627M1458.16 576.726H1492.06M1458.16 610.627V644.528M1458.16 610.627H1492.06M1458.16 644.528V678.43M1458.16 644.528H1492.06M1458.16 678.43H1492.06V644.528M1492.06 34.3041V68.2054M1492.06 68.2054V102.107M1492.06 102.107V136.008M1492.06 136.008V169.909M1492.06 169.909V203.811M1492.06 203.811V237.712M1492.06 237.712V271.614M1492.06 271.614V305.515M1492.06 305.515V339.416M1492.06 339.416V373.318M1492.06 373.318V407.219M1492.06 407.219V441.12M1492.06 441.12V475.022M1492.06 475.022V508.923M1492.06 508.923V542.824M1492.06 542.824V576.726M1492.06 576.726V610.627M1492.06 610.627V644.528" stroke="url(#paint0_radial_84_330)" stroke-opacity="0.2" stroke-width="0.805493"/>
</g>
<defs>
<radialGradient id="paint0_radial_84_330" cx="0" cy="0" r="1" gradientUnits="userSpaceOnUse" gradientTransform="translate(746.232 339.416) rotate(90) scale(339.013 745.83)">
<stop/>
<stop offset="1" stop-opacity="0"/>
</radialGradient>
</defs>
</svg>
