<svg width="155" height="45" viewBox="0 0 155 45" fill="none" xmlns="http://www.w3.org/2000/svg">
<path d="M73.0281 20.6832V11.0383H79.5271V12.7196H75.0673V15.0178H79.1927V16.6991H75.0673V19.002H79.5459V20.6832H73.0281Z" fill="white"/>
<path d="M63.1335 20.6832V11.0383H65.1727V15.0178H69.3123V11.0383H71.3468V20.6832H69.3123V16.6991H65.1727V20.6832H63.1335Z" fill="white"/>
<path d="M53.9077 12.7196V11.0383H61.829V12.7196H58.8762V20.6832H56.8605V12.7196H53.9077Z" fill="white"/>
<path d="M41.3113 20.6832V11.0383H43.3505V15.0178H47.49V11.0383H49.5245V20.6832H47.49V16.6991H43.3505V20.6832H41.3113Z" fill="white"/>
<path d="M39.8489 14.415H37.7862C37.7485 14.1482 37.6716 13.9111 37.5554 13.7039C37.4393 13.4935 37.2901 13.3146 37.108 13.167C36.9259 13.0195 36.7156 12.9064 36.477 12.8279C36.2415 12.7495 35.9856 12.7102 35.7093 12.7102C35.2101 12.7102 34.7753 12.8342 34.4048 13.0823C34.0343 13.3271 33.7471 13.6851 33.543 14.156C33.3389 14.6238 33.2369 15.1921 33.2369 15.8608C33.2369 16.5484 33.3389 17.1261 33.543 17.5939C33.7502 18.0617 34.039 18.4149 34.4095 18.6535C34.78 18.8921 35.2086 19.0114 35.6952 19.0114C35.9683 19.0114 36.2211 18.9753 36.4534 18.9031C36.6889 18.8309 36.8977 18.7257 37.0798 18.5876C37.2619 18.4463 37.4126 18.2752 37.5319 18.0742C37.6543 17.8733 37.7391 17.6441 37.7862 17.3867L39.8489 17.3961C39.7955 17.8388 39.6621 18.2658 39.4486 18.6771C39.2383 19.0852 38.9541 19.451 38.5962 19.7744C38.2414 20.0946 37.8176 20.3489 37.3247 20.5373C36.8349 20.7225 36.2807 20.8151 35.6622 20.8151C34.802 20.8151 34.0328 20.6205 33.3546 20.2312C32.6796 19.8419 32.1459 19.2783 31.7534 18.5405C31.3641 17.8027 31.1694 16.9094 31.1694 15.8608C31.1694 14.809 31.3672 13.9143 31.7628 13.1764C32.1584 12.4386 32.6953 11.8766 33.3734 11.4905C34.0516 11.1012 34.8145 10.9065 35.6622 10.9065C36.2211 10.9065 36.7391 10.985 37.2163 11.142C37.6967 11.2989 38.1221 11.5281 38.4926 11.8295C38.8631 12.1278 39.1645 12.4936 39.3968 12.9268C39.6323 13.3601 39.783 13.8562 39.8489 14.415Z" fill="white"/>
<path d="M22.5535 12.7196V11.0383H30.4747V12.7196H27.5219V20.6832H25.5063V12.7196H22.5535Z" fill="white"/>
<path d="M15.8414 20.6832H13.6562L16.9858 11.0383H19.6137L22.9385 20.6832H20.7534L18.3374 13.2423H18.2621L15.8414 20.6832ZM15.7049 16.8922H20.8664V18.4839H15.7049V16.8922Z" fill="white"/>
<path d="M3.58053 20.6832L0.820801 11.0383H3.04836L4.64486 17.7398H4.72492L6.48625 11.0383H8.39356L10.1502 17.754H10.235L11.8314 11.0383H14.059L11.2993 20.6832H9.3119L7.47523 14.3773H7.39987L5.56791 20.6832H3.58053Z" fill="white"/>
<path d="M107.212 43.4234L102.426 44.652H96.8794C94.6872 44.115 92.0613 43.4024 92.1376 43.0832V43.0701L92.1637 43.0139L92.4879 42.3434C92.7891 41.717 93.1966 40.8829 93.4365 40.3901C93.5589 40.1391 93.6372 39.9765 93.6372 39.9765L100.375 40.5396C100.375 40.5396 105.205 37.4882 105.619 39.034C105.813 39.669 106.055 40.2881 106.344 40.8859C106.584 41.4089 106.839 41.9188 107.056 42.3374C107.056 42.3464 107.065 42.3544 107.069 42.3635C107.24 42.6888 107.291 43.0642 107.212 43.4234Z" fill="#802D55"/>
<path d="M110.227 7.86206C110.227 7.86206 110.227 27.0189 94.0579 37.2112L94.4794 34.7208C94.4794 34.7208 105.198 27.3291 100.136 10.0402C99.944 9.3937 99.8456 8.7231 99.8436 8.04876V8.0056C99.8436 8.0056 101.45 10.0071 103.062 16.368C103.062 16.368 103.321 17.3717 104.097 17.4018C104.097 17.4018 103.093 14.2601 104.345 13.714C105.55 13.1911 106.177 14.1376 106.253 14.6254C106.353 15.2498 106.107 16.4734 105.762 17.2202C105.762 17.2202 107.285 17.699 108.524 11.5188C108.793 10.1819 109.376 8.92827 110.227 7.86206Z" fill="#FEA931"/>
<path d="M105.438 28.4333C105.438 28.4333 106.702 35.9807 95.131 39.0462C95.131 39.0462 100.917 39.7358 104.902 36.058C104.902 36.058 105.491 39.1385 106.347 40.8871C106.347 40.8871 97.7579 43.5089 93.4407 40.3852L94.058 38.4278C94.058 38.4278 102.142 34.8314 105.438 28.4333Z" fill="#FEA931"/>
<path d="M108.189 44.6522H91.395L92.1378 43.0833V43.0702L92.1639 43.014L92.4821 42.3405H92.4881C99.7875 44.4022 99.8889 41.6208 107.064 42.3636L108.189 44.6522Z" fill="#D44A23"/>
<path d="M91.3377 12.7415C91.3377 12.7415 89.4988 25.3578 96.8584 29.5435C96.8584 29.5435 100.799 24.4243 95.6108 18.9859C94.0441 17.3229 92.7257 15.4425 91.6961 13.4029C91.5455 13.1139 91.418 12.881 91.3377 12.7415Z" fill="#D14B21"/>
<path d="M99.5485 0.00564069C97.3171 0.0749005 95.153 0.875906 93.5088 2.38657C91.7131 4.03677 89.7337 8.02974 92.1036 10.9607C95.145 14.7128 99.958 10.9607 99.3076 7.43652C99.3076 7.43652 101.243 7.18558 102.045 9.73213C102.157 10.1077 102.323 10.4653 102.537 10.7941C103.129 11.6835 104.395 12.9562 106.357 11.842C109.193 10.236 109.298 2.63852 102.372 0.347925C101.468 0.048803 100.452 -0.0224648 99.5485 0.00564069Z" fill="url(#paint0_linear_377_7077)"/>
<path d="M17.3682 34.3354L19.0013 28.7745C19.0796 28.4734 19.1589 28.1592 19.2382 27.828C19.3158 27.5013 19.3671 27.169 19.3918 26.8342C19.4163 26.5264 19.4042 26.2167 19.3556 25.9118C19.316 25.6454 19.2104 25.3932 19.0485 25.178V25.0596H25.2477V25.178C24.79 25.5882 24.3838 26.1758 24.0292 26.9406C23.6534 27.7634 23.3409 28.6138 23.0947 29.4842L19.4982 41.6237H15.4048L12.6123 32.2054L9.84393 41.6237H5.74957L2.15308 29.4842C1.90723 28.6136 1.59481 27.7633 1.21857 26.9406C0.86324 26.1758 0.457048 25.5882 0 25.178V25.0596H6.19826V25.178C6.03634 25.3932 5.93075 25.6454 5.8911 25.9118C5.84291 26.2168 5.83112 26.5264 5.85597 26.8342C5.87963 27.1691 5.93099 27.5015 6.00955 27.828C6.08784 28.1592 6.16714 28.4754 6.24643 28.7745L7.87856 34.3354L9.32197 29.4611V29.4842L9.61106 28.4674C9.721 28.0743 9.80781 27.6751 9.87104 27.2719C9.93369 26.8888 9.94953 26.4995 9.91821 26.1125C9.89838 25.7721 9.77472 25.446 9.56389 25.178V25.0596H15.6688V25.178C15.5042 25.4004 15.3982 25.6607 15.3606 25.9349C15.3129 26.2481 15.3052 26.5662 15.3375 26.8814C15.3705 27.2239 15.4258 27.5639 15.5032 27.8992C15.5815 28.2465 15.6604 28.5697 15.7401 28.8689L17.3682 34.3354Z" fill="white"/>
<path d="M51.442 25.0596C52.7991 25.0596 53.9702 25.2014 54.9552 25.4852C55.9403 25.7689 56.7486 26.1634 57.3803 26.6686C57.9894 27.1447 58.4695 27.7659 58.7766 28.4754C59.0805 29.198 59.2336 29.9751 59.2262 30.759C59.2262 32.0853 58.9462 33.1503 58.3861 33.9539C57.8297 34.7548 57.0759 35.3986 56.1979 35.823L56.4579 36.2496C56.8038 36.8016 57.1468 37.334 57.4867 37.8465C57.8267 38.3591 58.1612 38.8245 58.4905 39.2428C58.7876 39.6245 59.1203 39.977 59.4842 40.2957C59.7639 40.5535 60.1067 40.7329 60.4779 40.8157V40.9341C60.1053 41.2554 59.6708 41.497 59.2012 41.6438C58.7194 41.8003 58.2161 41.8802 57.7096 41.8807C57.2041 41.8855 56.6996 41.8381 56.2039 41.7391C55.7589 41.6455 55.3316 41.4815 54.9382 41.2533C54.5232 41.0083 54.1481 40.7013 53.826 40.3429C53.4341 39.9041 53.0855 39.4284 52.7851 38.9226L51.5314 36.9351C51.168 36.9672 50.8127 36.9903 50.4664 37.0064L49.4014 37.0536C49.4079 37.9641 49.4749 38.8732 49.6021 39.7748C49.7206 40.5637 49.9611 41.1396 50.3238 41.5023V41.6207H44.225V41.5023C44.6031 41.1081 44.8517 40.469 44.9708 39.5851C45.0951 38.5815 45.1531 37.5709 45.1444 36.5597V30.1236C45.1519 29.111 45.0925 28.099 44.9667 27.0942C44.8483 26.2109 44.5997 25.5722 44.2209 25.178V25.0596H51.442ZM49.4074 33.96C50.0565 33.9437 50.7042 33.8924 51.3477 33.8064C51.9458 33.7322 52.531 33.5769 53.0872 33.3447C53.567 33.1465 53.9927 32.8368 54.3289 32.4413C54.6447 32.0632 54.8026 31.5663 54.8026 30.9507C54.8026 30.1617 54.4791 29.5661 53.832 29.164C53.1849 28.7618 52.2702 28.561 51.0877 28.5617H49.4074V33.96Z" fill="white"/>
<path d="M67.6037 25.0596V25.178C67.2256 25.5728 66.977 26.2116 66.8579 27.0942C66.733 28.0991 66.674 29.111 66.6812 30.1236V38.0031H69.6152C70.1362 38.0031 70.628 38.0031 71.0938 37.9911C71.5378 37.9852 71.9807 37.9456 72.4187 37.8726C72.8253 37.8057 73.2226 37.6908 73.6022 37.5304C73.9908 37.3613 74.3535 37.138 74.6792 36.8669L74.7977 36.891L73.9214 41.9309L73.8029 41.978C73.5668 41.8872 73.3209 41.8238 73.0702 41.7893C72.7691 41.7422 72.4308 41.706 72.0524 41.6829C71.6739 41.6599 71.2674 41.6428 70.8338 41.6358C70.4002 41.6287 69.9545 41.6237 69.4968 41.6237H61.4988V41.5053C61.8769 41.1111 62.1255 40.4721 62.2446 39.5881C62.3695 38.5836 62.4285 37.5719 62.4212 36.5597V30.1236C62.4285 29.111 62.3695 28.0991 62.2446 27.0942C62.1261 26.2109 61.8775 25.5722 61.4988 25.178V25.0596H67.6037Z" fill="white"/>
<path d="M83.3879 25.0596C84.5871 25.0455 85.781 25.2214 86.9252 25.5806C87.9418 25.9018 88.8805 26.4309 89.6815 27.1344C90.4729 27.8475 91.0883 28.7342 91.4793 29.7251C91.9049 30.7664 92.118 31.9732 92.1187 33.3457C92.1194 34.7182 91.9062 35.9251 91.4793 36.9663C91.088 37.957 90.4727 38.8438 89.6815 39.557C88.8801 40.2595 87.941 40.7874 86.9242 41.1068C85.78 41.466 84.5861 41.6419 83.3869 41.6278H76.217V41.5093C76.5951 41.1152 76.8437 40.4761 76.9628 39.5921C77.0878 38.5876 77.1468 37.576 77.1395 36.5638V30.1236C77.1471 29.1111 77.0884 28.0991 76.9638 27.0942C76.8454 26.2109 76.5968 25.5722 76.218 25.1781V25.0596H83.3879ZM83.0095 38.1216C84.4757 38.1216 85.627 37.7154 86.4635 36.9031C87.3 36.0907 87.7182 34.9036 87.7182 33.3417C87.7182 31.7798 87.3 30.5927 86.4635 29.7803C85.627 28.9679 84.4757 28.5618 83.0095 28.5618C82.7726 28.5618 82.4966 28.5658 82.1814 28.5738C81.9201 28.5772 81.6593 28.5969 81.4005 28.633V38.0504C81.6631 38.0854 81.9275 38.1051 82.1925 38.1096C82.5003 38.1176 82.7723 38.1216 83.0085 38.1216H83.0095Z" fill="white"/>
<path d="M143.186 39.9776V22.7683H149C150.35 22.7683 151.454 23.012 152.311 23.4994C153.174 23.9811 153.813 24.6338 154.227 25.4573C154.642 26.2808 154.849 27.1995 154.849 28.2134C154.849 29.2274 154.642 30.1489 154.227 30.978C153.818 31.8071 153.185 32.4681 152.328 32.9611C151.471 33.4485 150.373 33.6922 149.034 33.6922H144.866V31.8435H148.967C149.891 31.8435 150.633 31.6839 151.194 31.3646C151.754 31.0452 152.16 30.6139 152.412 30.0705C152.67 29.5215 152.799 28.9025 152.799 28.2134C152.799 27.5244 152.67 26.9082 152.412 26.3648C152.16 25.8214 151.751 25.3956 151.185 25.0875C150.619 24.7738 149.869 24.617 148.933 24.617H145.269V39.9776H143.186Z" fill="white"/>
<path d="M136.94 22.7683H139.024V34.1627C139.024 35.3392 138.747 36.3895 138.192 37.3139C137.643 38.2326 136.867 38.958 135.865 39.4902C134.862 40.0168 133.685 40.2801 132.335 40.2801C130.985 40.2801 129.809 40.0168 128.806 39.4902C127.803 38.958 127.025 38.2326 126.47 37.3139C125.921 36.3895 125.646 35.3392 125.646 34.1627V22.7683H127.73V33.9947C127.73 34.835 127.915 35.5828 128.285 36.2383C128.655 36.8881 129.181 37.4007 129.865 37.776C130.554 38.1458 131.377 38.3306 132.335 38.3306C133.293 38.3306 134.117 38.1458 134.806 37.776C135.495 37.4007 136.021 36.8881 136.385 36.2383C136.755 35.5828 136.94 34.835 136.94 33.9947V22.7683Z" fill="white"/>
<path d="M122.279 28.1461H120.195C120.072 27.5467 119.856 27.0201 119.548 26.5664C119.246 26.1126 118.876 25.7317 118.439 25.4236C118.008 25.1099 117.529 24.8746 117.002 24.7177C116.475 24.5609 115.926 24.4824 115.355 24.4824C114.313 24.4824 113.369 24.7457 112.523 25.2723C111.683 25.7989 111.014 26.5748 110.515 27.6C110.022 28.6251 109.776 29.8828 109.776 31.3729C109.776 32.863 110.022 34.1207 110.515 35.1458C111.014 36.171 111.683 36.9469 112.523 37.4734C113.369 38 114.313 38.2633 115.355 38.2633C115.926 38.2633 116.475 38.1849 117.002 38.028C117.529 37.8712 118.008 37.6387 118.439 37.3306C118.876 37.0169 119.246 36.6332 119.548 36.1794C119.856 35.72 120.072 35.1934 120.195 34.5996H122.279C122.122 35.4791 121.837 36.2662 121.422 36.9609C121.007 37.6555 120.492 38.2465 119.876 38.7339C119.26 39.2157 118.568 39.5826 117.8 39.8347C117.038 40.0868 116.223 40.2128 115.355 40.2128C113.887 40.2128 112.582 39.8543 111.439 39.1372C110.296 38.4202 109.397 37.4006 108.742 36.0786C108.087 34.7565 107.759 33.1879 107.759 31.3729C107.759 29.5578 108.087 27.9893 108.742 26.6672C109.397 25.3452 110.296 24.3256 111.439 23.6085C112.582 22.8915 113.887 22.533 115.355 22.533C116.223 22.533 117.038 22.659 117.8 22.9111C118.568 23.1632 119.26 23.5329 119.876 24.0203C120.492 24.5021 121.007 25.0903 121.422 25.7849C121.837 26.474 122.122 27.261 122.279 28.1461Z" fill="white"/>
<path d="M6.98315 44.6169C52.3594 44.5366 102.198 43.9916 147.394 44.5507C148.498 44.5637 150.813 44.5969 151.924 44.6169V44.6872C150.777 44.7073 148.535 44.7404 147.394 44.7534C102.297 45.2413 52.1135 44.902 6.98315 44.6169Z" fill="#D44A23"/>
<path d="M44.2682 29.5565C41.4647 26.6456 38.083 24.9392 33.9886 24.9392C32.8355 24.943 31.6873 25.0887 30.5698 25.3728C25.6764 26.6155 22.7484 30.2301 21.7888 31.554C21.4566 32.0128 21.2077 32.4062 21.0491 32.6682C21.1494 32.9603 21.2659 33.2644 21.4024 33.5716C21.7236 34.3042 22.1043 35.0092 22.5407 35.6795C25.1786 39.2449 28.6235 41.3407 33.0069 41.6951C37.3904 42.0494 41.021 40.3842 44.1086 37.3337C44.2772 37.141 44.5392 36.883 44.5723 36.8439C46.2998 34.8042 46.8348 33.1299 46.8348 33.1299C46.121 31.8425 45.2596 30.6426 44.2682 29.5545V29.5565ZM38.2747 38.0223C33.827 39.4667 29.6865 38.754 25.9284 36.0148C25.0541 35.3784 24.3796 34.466 23.6197 33.676C23.3979 33.4461 23.4451 33.2193 23.6197 32.9643C24.5623 31.6012 25.8119 30.5884 27.2333 29.7764C29.3221 28.5829 31.5766 27.9967 34.4263 27.9465C38.0177 28.1171 41.5179 29.4521 44.1417 32.6562C44.8152 33.4782 44.757 33.2474 44.1578 34.0253C42.6421 35.9947 40.6115 37.2634 38.2747 38.0223Z" fill="white"/>
<path d="M34.0338 29.1228C31.5645 29.1228 29.6172 31.0009 29.6263 33.3738C29.6313 35.6824 31.5916 37.5424 34.0137 37.5364C36.5041 37.5364 38.3781 35.7145 38.364 33.3206C38.35 30.9557 36.4549 29.1188 34.0338 29.1228ZM32.6205 33.2684C31.8998 33.2603 31.2885 32.6661 31.2965 31.9755C31.3045 31.2849 31.955 30.6566 32.6215 30.6626C33.288 30.6686 33.9334 31.304 33.9394 31.9845C33.9379 32.1557 33.9024 32.3248 33.8352 32.4821C33.7679 32.6395 33.6701 32.7819 33.5475 32.9013C33.4249 33.0207 33.2798 33.1146 33.1207 33.1776C32.9616 33.2406 32.7916 33.2714 32.6205 33.2684Z" fill="white"/>
<defs>
<linearGradient id="paint0_linear_377_7077" x1="93.4265" y1="13.6809" x2="105.201" y2="1.90677" gradientUnits="userSpaceOnUse">
<stop offset="0.1" stop-color="#CF4220"/>
<stop offset="0.9" stop-color="#F7C40C"/>
</linearGradient>
</defs>
</svg>
